solid 
   facet normal -0.000000e+00 0.000000e+00 1.000000e+00
      outer loop
         vertex 0.000000e+00 0.000000e+00 4.100000e-01
         vertex -5.000000e-01 -8.000000e-01 4.100000e-01
         vertex -3.673940e-16 -3.000000e+00 4.100000e-01
      endloop
   endfacet
   facet normal -0.000000e+00 0.000000e+00 1.000000e+00
      outer loop
         vertex -5.000000e-01 -8.000000e-01 4.100000e-01
         vertex -5.000000e-01 -1.000000e+00 4.100000e-01
         vertex -3.673940e-16 -3.000000e+00 4.100000e-01
      endloop
   endfacet
   facet normal 0.000000e+00 0.000000e+00 1.000000e+00
      outer loop
         vertex -3.673940e-16 -3.000000e+00 4.100000e-01
         vertex -2.386781e-01 -2.677693e+00 4.100000e-01
         vertex -2.600000e+00 -3.000000e+00 4.100000e-01
      endloop
   endfacet
   facet normal 0.000000e+00 0.000000e+00 1.000000e+00
      outer loop
         vertex -2.386781e-01 -2.677693e+00 4.100000e-01
         vertex -2.917111e-01 -2.655726e+00 4.100000e-01
         vertex -2.600000e+00 -3.000000e+00 4.100000e-01
      endloop
   endfacet
   facet normal 0.000000e+00 0.000000e+00 1.000000e+00
      outer loop
         vertex -2.600000e+00 -3.000000e+00 4.100000e-01
         vertex -2.100000e+00 -2.200000e+00 4.100000e-01
         vertex -2.600000e+00 3.184082e-16 4.100000e-01
      endloop
   endfacet
   facet normal 0.000000e+00 0.000000e+00 1.000000e+00
      outer loop
         vertex -2.100000e+00 -2.200000e+00 4.100000e-01
         vertex -2.100000e+00 -2.000000e+00 4.100000e-01
         vertex -2.600000e+00 3.184082e-16 4.100000e-01
      endloop
   endfacet
   facet normal 0.000000e+00 -0.000000e+00 1.000000e+00
      outer loop
         vertex -2.600000e+00 3.184082e-16 4.100000e-01
         vertex -1.950000e+00 -5.401924e-01 4.100000e-01
         vertex 0.000000e+00 0.000000e+00 4.100000e-01
      endloop
   endfacet
   facet normal 0.000000e+00 -0.000000e+00 1.000000e+00
      outer loop
         vertex -1.950000e+00 -5.401924e-01 4.100000e-01
         vertex -1.800000e+00 -5.000000e-01 4.100000e-01
         vertex 0.000000e+00 0.000000e+00 4.100000e-01
      endloop
   endfacet
   facet normal -0.000000e+00 0.000000e+00 1.000000e+00
      outer loop
         vertex 0.000000e+00 0.000000e+00 4.100000e-01
         vertex -8.000000e-01 -5.000000e-01 4.100000e-01
         vertex -5.878680e-01 -5.878680e-01 4.100000e-01
      endloop
   endfacet
   facet normal 0.000000e+00 0.000000e+00 1.000000e+00
      outer loop
         vertex -8.000000e-01 -5.000000e-01 4.100000e-01
         vertex 0.000000e+00 0.000000e+00 4.100000e-01
         vertex -1.800000e+00 -5.000000e-01 4.100000e-01
      endloop
   endfacet
   facet normal 0.000000e+00 0.000000e+00 1.000000e+00
      outer loop
         vertex -1.950000e+00 -5.401924e-01 4.100000e-01
         vertex -2.600000e+00 3.184082e-16 4.100000e-01
         vertex -2.059808e+00 -6.500000e-01 4.100000e-01
      endloop
   endfacet
   facet normal 0.000000e+00 -0.000000e+00 1.000000e+00
      outer loop
         vertex -2.600000e+00 3.184082e-16 4.100000e-01
         vertex -2.100000e+00 -8.000000e-01 4.100000e-01
         vertex -2.059808e+00 -6.500000e-01 4.100000e-01
      endloop
   endfacet
   facet normal 0.000000e+00 0.000000e+00 1.000000e+00
      outer loop
         vertex -2.100000e+00 -8.000000e-01 4.100000e-01
         vertex -2.600000e+00 3.184082e-16 4.100000e-01
         vertex -2.100000e+00 -1.000000e+00 4.100000e-01
      endloop
   endfacet
   facet normal 0.000000e+00 -0.000000e+00 1.000000e+00
      outer loop
         vertex -2.600000e+00 3.184082e-16 4.100000e-01
         vertex -2.100000e+00 -2.000000e+00 4.100000e-01
         vertex -2.100000e+00 -1.000000e+00 4.100000e-01
      endloop
   endfacet
   facet normal 0.000000e+00 0.000000e+00 1.000000e+00
      outer loop
         vertex -2.100000e+00 -1.000000e+00 4.100000e-01
         vertex -2.100000e+00 -2.000000e+00 4.100000e-01
         vertex -5.000000e-01 -1.000000e+00 4.100000e-01
      endloop
   endfacet
   facet normal 0.000000e+00 -0.000000e+00 1.000000e+00
      outer loop
         vertex -2.100000e+00 -2.000000e+00 4.100000e-01
         vertex -5.000000e-01 -2.000000e+00 4.100000e-01
         vertex -5.000000e-01 -1.000000e+00 4.100000e-01
      endloop
   endfacet
   facet normal -0.000000e+00 -0.000000e+00 1.000000e+00
      outer loop
         vertex -5.000000e-01 -1.000000e+00 4.100000e-01
         vertex -1.636781e-01 -2.602693e+00 4.100000e-01
         vertex -3.673940e-16 -3.000000e+00 4.100000e-01
      endloop
   endfacet
   facet normal -0.000000e+00 0.000000e+00 1.000000e+00
      outer loop
         vertex -1.636781e-01 -2.602693e+00 4.100000e-01
         vertex -1.856451e-01 -2.655726e+00 4.100000e-01
         vertex -3.673940e-16 -3.000000e+00 4.100000e-01
      endloop
   endfacet
   facet normal 0.000000e+00 0.000000e+00 1.000000e+00
      outer loop
         vertex -1.856451e-01 -2.549660e+00 4.100000e-01
         vertex -5.000000e-01 -1.000000e+00 4.100000e-01
         vertex -2.386781e-01 -2.527693e+00 4.100000e-01
      endloop
   endfacet
   facet normal -0.000000e+00 0.000000e+00 1.000000e+00
      outer loop
         vertex -5.000000e-01 -1.000000e+00 4.100000e-01
         vertex -5.000000e-01 -2.000000e+00 4.100000e-01
         vertex -2.386781e-01 -2.527693e+00 4.100000e-01
      endloop
   endfacet
   facet normal 0.000000e+00 0.000000e+00 1.000000e+00
      outer loop
         vertex -2.386781e-01 -2.527693e+00 4.100000e-01
         vertex -5.000000e-01 -2.000000e+00 4.100000e-01
         vertex -2.917111e-01 -2.549660e+00 4.100000e-01
      endloop
   endfacet
   facet normal -0.000000e+00 0.000000e+00 1.000000e+00
      outer loop
         vertex -5.000000e-01 -2.000000e+00 4.100000e-01
         vertex -5.000000e-01 -2.200000e+00 4.100000e-01
         vertex -2.917111e-01 -2.549660e+00 4.100000e-01
      endloop
   endfacet
   facet normal 0.000000e+00 0.000000e+00 1.000000e+00
      outer loop
         vertex -2.917111e-01 -2.549660e+00 4.100000e-01
         vertex -5.000000e-01 -2.200000e+00 4.100000e-01
         vertex -3.136781e-01 -2.602693e+00 4.100000e-01
      endloop
   endfacet
   facet normal -0.000000e+00 0.000000e+00 1.000000e+00
      outer loop
         vertex -5.000000e-01 -2.200000e+00 4.100000e-01
         vertex -5.401924e-01 -2.350000e+00 4.100000e-01
         vertex -3.136781e-01 -2.602693e+00 4.100000e-01
      endloop
   endfacet
   facet normal 0.000000e+00 0.000000e+00 1.000000e+00
      outer loop
         vertex -3.136781e-01 -2.602693e+00 4.100000e-01
         vertex -5.401924e-01 -2.350000e+00 4.100000e-01
         vertex -2.917111e-01 -2.655726e+00 4.100000e-01
      endloop
   endfacet
   facet normal -0.000000e+00 0.000000e+00 1.000000e+00
      outer loop
         vertex -5.401924e-01 -2.350000e+00 4.100000e-01
         vertex -6.500000e-01 -2.459808e+00 4.100000e-01
         vertex -2.917111e-01 -2.655726e+00 4.100000e-01
      endloop
   endfacet
   facet normal 0.000000e+00 0.000000e+00 1.000000e+00
      outer loop
         vertex -2.917111e-01 -2.655726e+00 4.100000e-01
         vertex -6.500000e-01 -2.459808e+00 4.100000e-01
         vertex -2.600000e+00 -3.000000e+00 4.100000e-01
      endloop
   endfacet
   facet normal -0.000000e+00 0.000000e+00 1.000000e+00
      outer loop
         vertex -6.500000e-01 -2.459808e+00 4.100000e-01
         vertex -8.000000e-01 -2.500000e+00 4.100000e-01
         vertex -2.600000e+00 -3.000000e+00 4.100000e-01
      endloop
   endfacet
   facet normal 0.000000e+00 0.000000e+00 1.000000e+00
      outer loop
         vertex -2.600000e+00 -3.000000e+00 4.100000e-01
         vertex -1.950000e+00 -2.459808e+00 4.100000e-01
         vertex -2.059808e+00 -2.350000e+00 4.100000e-01
      endloop
   endfacet
   facet normal 0.000000e+00 0.000000e+00 1.000000e+00
      outer loop
         vertex -1.950000e+00 -2.459808e+00 4.100000e-01
         vertex -2.600000e+00 -3.000000e+00 4.100000e-01
         vertex -1.800000e+00 -2.500000e+00 4.100000e-01
      endloop
   endfacet
   facet normal 0.000000e+00 0.000000e+00 1.000000e+00
      outer loop
         vertex -1.800000e+00 -2.500000e+00 4.100000e-01
         vertex -2.600000e+00 -3.000000e+00 4.100000e-01
         vertex -8.000000e-01 -2.500000e+00 4.100000e-01
      endloop
   endfacet
   facet normal 0.000000e+00 0.000000e+00 1.000000e+00
      outer loop
         vertex -5.000000e-01 -8.000000e-01 4.100000e-01
         vertex 0.000000e+00 0.000000e+00 4.100000e-01
         vertex -5.878680e-01 -5.878680e-01 4.100000e-01
      endloop
   endfacet
   facet normal 0.000000e+00 0.000000e+00 1.000000e+00
      outer loop
         vertex -2.100000e+00 -2.200000e+00 4.100000e-01
         vertex -2.600000e+00 -3.000000e+00 4.100000e-01
         vertex -2.059808e+00 -2.350000e+00 4.100000e-01
      endloop
   endfacet
   facet normal 0.000000e+00 0.000000e+00 1.000000e+00
      outer loop
         vertex -2.386781e-01 -2.677693e+00 4.100000e-01
         vertex -3.673940e-16 -3.000000e+00 4.100000e-01
         vertex -1.856451e-01 -2.655726e+00 4.100000e-01
      endloop
   endfacet
   facet normal 0.000000e+00 0.000000e+00 1.000000e+00
      outer loop
         vertex -1.636781e-01 -2.602693e+00 4.100000e-01
         vertex -5.000000e-01 -1.000000e+00 4.100000e-01
         vertex -1.856451e-01 -2.549660e+00 4.100000e-01
      endloop
   endfacet
   facet normal 3.826862e-01 -9.238784e-01 0.000000e+00
      outer loop
         vertex -2.917111e-01 -2.549660e+00 4.100000e-01
         vertex -2.917111e-01 -2.549660e+00 3.600000e-01
         vertex -2.386781e-01 -2.527693e+00 3.600000e-01
      endloop
   endfacet
   facet normal 3.826862e-01 -9.238784e-01 0.000000e+00
      outer loop
         vertex -2.386781e-01 -2.527693e+00 4.100000e-01
         vertex -2.917111e-01 -2.549660e+00 4.100000e-01
         vertex -2.386781e-01 -2.527693e+00 3.600000e-01
      endloop
   endfacet
   facet normal 9.238792e-01 -3.826843e-01 0.000000e+00
      outer loop
         vertex -3.136781e-01 -2.602693e+00 4.100000e-01
         vertex -3.136781e-01 -2.602693e+00 3.600000e-01
         vertex -2.917111e-01 -2.549660e+00 3.600000e-01
      endloop
   endfacet
   facet normal 9.238792e-01 -3.826843e-01 0.000000e+00
      outer loop
         vertex -2.917111e-01 -2.549660e+00 4.100000e-01
         vertex -3.136781e-01 -2.602693e+00 4.100000e-01
         vertex -2.917111e-01 -2.549660e+00 3.600000e-01
      endloop
   endfacet
   facet normal 9.238798e-01 3.826828e-01 -0.000000e+00
      outer loop
         vertex -2.917111e-01 -2.655726e+00 4.100000e-01
         vertex -2.917111e-01 -2.655726e+00 3.600000e-01
         vertex -3.136781e-01 -2.602693e+00 3.600000e-01
      endloop
   endfacet
   facet normal 9.238798e-01 3.826828e-01 0.000000e+00
      outer loop
         vertex -3.136781e-01 -2.602693e+00 4.100000e-01
         vertex -2.917111e-01 -2.655726e+00 4.100000e-01
         vertex -3.136781e-01 -2.602693e+00 3.600000e-01
      endloop
   endfacet
   facet normal 3.826827e-01 9.238798e-01 -0.000000e+00
      outer loop
         vertex -2.386781e-01 -2.677693e+00 4.100000e-01
         vertex -2.386781e-01 -2.677693e+00 3.600000e-01
         vertex -2.917111e-01 -2.655726e+00 3.600000e-01
      endloop
   endfacet
   facet normal 3.826827e-01 9.238798e-01 0.000000e+00
      outer loop
         vertex -2.917111e-01 -2.655726e+00 4.100000e-01
         vertex -2.386781e-01 -2.677693e+00 4.100000e-01
         vertex -2.917111e-01 -2.655726e+00 3.600000e-01
      endloop
   endfacet
   facet normal -3.826826e-01 9.238799e-01 0.000000e+00
      outer loop
         vertex -1.856451e-01 -2.655726e+00 4.100000e-01
         vertex -1.856451e-01 -2.655726e+00 3.600000e-01
         vertex -2.386781e-01 -2.677693e+00 3.600000e-01
      endloop
   endfacet
   facet normal -3.826826e-01 9.238799e-01 0.000000e+00
      outer loop
         vertex -2.386781e-01 -2.677693e+00 4.100000e-01
         vertex -1.856451e-01 -2.655726e+00 4.100000e-01
         vertex -2.386781e-01 -2.677693e+00 3.600000e-01
      endloop
   endfacet
   facet normal -9.238798e-01 3.826828e-01 0.000000e+00
      outer loop
         vertex -1.636781e-01 -2.602693e+00 4.100000e-01
         vertex -1.636781e-01 -2.602693e+00 3.600000e-01
         vertex -1.856451e-01 -2.655726e+00 3.600000e-01
      endloop
   endfacet
   facet normal -9.238798e-01 3.826828e-01 0.000000e+00
      outer loop
         vertex -1.856451e-01 -2.655726e+00 4.100000e-01
         vertex -1.636781e-01 -2.602693e+00 4.100000e-01
         vertex -1.856451e-01 -2.655726e+00 3.600000e-01
      endloop
   endfacet
   facet normal -9.238792e-01 -3.826843e-01 0.000000e+00
      outer loop
         vertex -1.856451e-01 -2.549660e+00 4.100000e-01
         vertex -1.856451e-01 -2.549660e+00 3.600000e-01
         vertex -1.636781e-01 -2.602693e+00 3.600000e-01
      endloop
   endfacet
   facet normal -9.238792e-01 -3.826843e-01 0.000000e+00
      outer loop
         vertex -1.636781e-01 -2.602693e+00 4.100000e-01
         vertex -1.856451e-01 -2.549660e+00 4.100000e-01
         vertex -1.636781e-01 -2.602693e+00 3.600000e-01
      endloop
   endfacet
   facet normal -3.826861e-01 -9.238784e-01 0.000000e+00
      outer loop
         vertex -2.386781e-01 -2.527693e+00 4.100000e-01
         vertex -2.386781e-01 -2.527693e+00 3.600000e-01
         vertex -1.856451e-01 -2.549660e+00 3.600000e-01
      endloop
   endfacet
   facet normal -3.826861e-01 -9.238784e-01 0.000000e+00
      outer loop
         vertex -1.856451e-01 -2.549660e+00 4.100000e-01
         vertex -2.386781e-01 -2.527693e+00 4.100000e-01
         vertex -1.856451e-01 -2.549660e+00 3.600000e-01
      endloop
   endfacet
   facet normal -1.000000e+00 0.000000e+00 0.000000e+00
      outer loop
         vertex -2.600000e+00 3.184082e-16 0.000000e+00
         vertex -2.600000e+00 -3.000000e+00 0.000000e+00
         vertex -2.600000e+00 -3.000000e+00 4.100000e-01
      endloop
   endfacet
   facet normal -1.000000e+00 0.000000e+00 0.000000e+00
      outer loop
         vertex -2.600000e+00 3.184082e-16 0.000000e+00
         vertex -2.600000e+00 -3.000000e+00 4.100000e-01
         vertex -2.600000e+00 3.184082e-16 4.100000e-01
      endloop
   endfacet
   facet normal 0.000000e+00 -1.000000e+00 0.000000e+00
      outer loop
         vertex -2.600000e+00 -3.000000e+00 0.000000e+00
         vertex -4.440892e-16 -3.000000e+00 0.000000e+00
         vertex -4.440892e-16 -3.000000e+00 4.100000e-01
      endloop
   endfacet
   facet normal -0.000000e+00 -1.000000e+00 0.000000e+00
      outer loop
         vertex -2.600000e+00 -3.000000e+00 0.000000e+00
         vertex -4.440892e-16 -3.000000e+00 4.100000e-01
         vertex -2.600000e+00 -3.000000e+00 4.100000e-01
      endloop
   endfacet
   facet normal 1.000000e+00 -1.224647e-16 0.000000e+00
      outer loop
         vertex -3.673940e-16 -3.000000e+00 0.000000e+00
         vertex -4.930381e-32 0.000000e+00 0.000000e+00
         vertex -4.930381e-32 0.000000e+00 4.100000e-01
      endloop
   endfacet
   facet normal 1.000000e+00 -1.224647e-16 0.000000e+00
      outer loop
         vertex -3.673940e-16 -3.000000e+00 0.000000e+00
         vertex -4.930381e-32 0.000000e+00 4.100000e-01
         vertex -3.673940e-16 -3.000000e+00 4.100000e-01
      endloop
   endfacet
   facet normal 1.224647e-16 1.000000e+00 -0.000000e+00
      outer loop
         vertex 0.000000e+00 0.000000e+00 0.000000e+00
         vertex -2.600000e+00 3.184082e-16 0.000000e+00
         vertex -2.600000e+00 3.184082e-16 4.100000e-01
      endloop
   endfacet
   facet normal 1.224647e-16 1.000000e+00 0.000000e+00
      outer loop
         vertex 0.000000e+00 0.000000e+00 0.000000e+00
         vertex -2.600000e+00 3.184082e-16 4.100000e-01
         vertex 0.000000e+00 0.000000e+00 4.100000e-01
      endloop
   endfacet
   facet normal 9.659258e-01 -2.588192e-01 0.000000e+00
      outer loop
         vertex -5.401924e-01 -2.350000e+00 4.100000e-01
         vertex -5.000000e-01 -2.200000e+00 4.100000e-01
         vertex -5.000000e-01 -2.200000e+00 1.340000e+00
      endloop
   endfacet
   facet normal 7.070645e-01 -7.070637e-01 -1.099101e-02
      outer loop
         vertex -5.878680e-01 -2.412132e+00 1.340000e+00
         vertex -6.500000e-01 -2.459808e+00 4.100000e-01
         vertex -5.401924e-01 -2.350000e+00 4.100000e-01
      endloop
   endfacet
   facet normal 2.588189e-01 -9.659259e-01 0.000000e+00
      outer loop
         vertex -8.000000e-01 -2.500000e+00 1.340000e+00
         vertex -8.000000e-01 -2.500000e+00 4.100000e-01
         vertex -6.500000e-01 -2.459808e+00 4.100000e-01
      endloop
   endfacet
   facet normal 3.825926e-01 -9.236602e-01 2.179013e-02
      outer loop
         vertex -6.500000e-01 -2.459808e+00 4.100000e-01
         vertex -5.878680e-01 -2.412132e+00 1.340000e+00
         vertex -8.000000e-01 -2.500000e+00 1.340000e+00
      endloop
   endfacet
   facet normal 9.236601e-01 -3.825927e-01 2.179007e-02
      outer loop
         vertex -5.401924e-01 -2.350000e+00 4.100000e-01
         vertex -5.000000e-01 -2.200000e+00 1.340000e+00
         vertex -5.878680e-01 -2.412132e+00 1.340000e+00
      endloop
   endfacet
   facet normal 0.000000e+00 -1.000000e+00 0.000000e+00
      outer loop
         vertex -8.000000e-01 -2.500000e+00 1.340000e+00
         vertex -1.800000e+00 -2.500000e+00 1.340000e+00
         vertex -1.800000e+00 -2.500000e+00 4.100000e-01
      endloop
   endfacet
   facet normal 0.000000e+00 -1.000000e+00 0.000000e+00
      outer loop
         vertex -8.000000e-01 -2.500000e+00 1.340000e+00
         vertex -1.800000e+00 -2.500000e+00 4.100000e-01
         vertex -8.000000e-01 -2.500000e+00 4.100000e-01
      endloop
   endfacet
   facet normal -2.588188e-01 -9.659259e-01 0.000000e+00
      outer loop
         vertex -1.950000e+00 -2.459808e+00 4.100000e-01
         vertex -1.800000e+00 -2.500000e+00 4.100000e-01
         vertex -1.800000e+00 -2.500000e+00 1.340000e+00
      endloop
   endfacet
   facet normal -7.070648e-01 -7.070633e-01 -1.099096e-02
      outer loop
         vertex -2.012132e+00 -2.412132e+00 1.340000e+00
         vertex -2.059808e+00 -2.350000e+00 4.100000e-01
         vertex -1.950000e+00 -2.459808e+00 4.100000e-01
      endloop
   endfacet
   facet normal -9.659258e-01 -2.588192e-01 0.000000e+00
      outer loop
         vertex -2.100000e+00 -2.200000e+00 1.340000e+00
         vertex -2.100000e+00 -2.200000e+00 4.100000e-01
         vertex -2.059808e+00 -2.350000e+00 4.100000e-01
      endloop
   endfacet
   facet normal -9.236601e-01 -3.825927e-01 2.179007e-02
      outer loop
         vertex -2.059808e+00 -2.350000e+00 4.100000e-01
         vertex -2.012132e+00 -2.412132e+00 1.340000e+00
         vertex -2.100000e+00 -2.200000e+00 1.340000e+00
      endloop
   endfacet
   facet normal -3.825927e-01 -9.236601e-01 2.179017e-02
      outer loop
         vertex -1.950000e+00 -2.459808e+00 4.100000e-01
         vertex -1.800000e+00 -2.500000e+00 1.340000e+00
         vertex -2.012132e+00 -2.412132e+00 1.340000e+00
      endloop
   endfacet
   facet normal -1.000000e+00 -0.000000e+00 -0.000000e+00
      outer loop
         vertex -2.100000e+00 -2.200000e+00 1.340000e+00
         vertex -2.100000e+00 -2.000000e+00 1.340000e+00
         vertex -2.100000e+00 -2.000000e+00 4.100000e-01
      endloop
   endfacet
   facet normal -1.000000e+00 0.000000e+00 0.000000e+00
      outer loop
         vertex -2.100000e+00 -2.200000e+00 1.340000e+00
         vertex -2.100000e+00 -2.000000e+00 4.100000e-01
         vertex -2.100000e+00 -2.200000e+00 4.100000e-01
      endloop
   endfacet
   facet normal 0.000000e+00 1.000000e+00 0.000000e+00
      outer loop
         vertex -2.100000e+00 -2.000000e+00 4.100000e-01
         vertex -2.100000e+00 -2.000000e+00 1.340000e+00
         vertex -5.000000e-01 -2.000000e+00 4.100000e-01
      endloop
   endfacet
   facet normal 0.000000e+00 1.000000e+00 0.000000e+00
      outer loop
         vertex -2.100000e+00 -2.000000e+00 1.340000e+00
         vertex -2.079904e+00 -2.000000e+00 1.415000e+00
         vertex -5.000000e-01 -2.000000e+00 4.100000e-01
      endloop
   endfacet
   facet normal 0.000000e+00 1.000000e+00 0.000000e+00
      outer loop
         vertex -5.000000e-01 -2.000000e+00 4.100000e-01
         vertex -2.079904e+00 -2.000000e+00 1.415000e+00
         vertex -5.000000e-01 -2.000000e+00 1.340000e+00
      endloop
   endfacet
   facet normal 0.000000e+00 1.000000e+00 0.000000e+00
      outer loop
         vertex -2.079904e+00 -2.000000e+00 1.415000e+00
         vertex -2.025000e+00 -2.000000e+00 1.469904e+00
         vertex -5.000000e-01 -2.000000e+00 1.340000e+00
      endloop
   endfacet
   facet normal 0.000000e+00 1.000000e+00 0.000000e+00
      outer loop
         vertex -5.000000e-01 -2.000000e+00 1.340000e+00
         vertex -2.025000e+00 -2.000000e+00 1.469904e+00
         vertex -5.439340e-01 -2.000000e+00 1.446066e+00
      endloop
   endfacet
   facet normal 0.000000e+00 1.000000e+00 0.000000e+00
      outer loop
         vertex -2.025000e+00 -2.000000e+00 1.469904e+00
         vertex -1.950000e+00 -2.000000e+00 1.490000e+00
         vertex -5.439340e-01 -2.000000e+00 1.446066e+00
      endloop
   endfacet
   facet normal -0.000000e+00 1.000000e+00 0.000000e+00
      outer loop
         vertex -5.439340e-01 -2.000000e+00 1.446066e+00
         vertex -1.950000e+00 -2.000000e+00 1.490000e+00
         vertex -6.500000e-01 -2.000000e+00 1.490000e+00
      endloop
   endfacet
   facet normal 1.000000e+00 -0.000000e+00 0.000000e+00
      outer loop
         vertex -5.000000e-01 -2.000000e+00 1.340000e+00
         vertex -5.000000e-01 -2.200000e+00 1.340000e+00
         vertex -5.000000e-01 -2.200000e+00 4.100000e-01
      endloop
   endfacet
   facet normal 1.000000e+00 0.000000e+00 0.000000e+00
      outer loop
         vertex -5.000000e-01 -2.000000e+00 1.340000e+00
         vertex -5.000000e-01 -2.200000e+00 4.100000e-01
         vertex -5.000000e-01 -2.000000e+00 4.100000e-01
      endloop
   endfacet
   facet normal 2.588189e-01 9.659259e-01 -0.000000e+00
      outer loop
         vertex -6.500000e-01 -5.401924e-01 1.340000e+00
         vertex -8.000000e-01 -5.000000e-01 4.100000e-01
         vertex -8.000000e-01 -5.000000e-01 1.340000e+00
      endloop
   endfacet
   facet normal 3.825926e-01 9.236602e-01 -2.179013e-02
      outer loop
         vertex -6.500000e-01 -5.401924e-01 1.340000e+00
         vertex -5.878680e-01 -5.878680e-01 4.100000e-01
         vertex -8.000000e-01 -5.000000e-01 4.100000e-01
      endloop
   endfacet
   facet normal 9.236602e-01 3.825926e-01 -2.179013e-02
      outer loop
         vertex -5.401924e-01 -6.500000e-01 1.340000e+00
         vertex -5.000000e-01 -8.000000e-01 4.100000e-01
         vertex -5.878680e-01 -5.878680e-01 4.100000e-01
      endloop
   endfacet
   facet normal 9.659259e-01 2.588189e-01 0.000000e+00
      outer loop
         vertex -5.401924e-01 -6.500000e-01 1.340000e+00
         vertex -5.000000e-01 -8.000000e-01 1.340000e+00
         vertex -5.000000e-01 -8.000000e-01 4.100000e-01
      endloop
   endfacet
   facet normal 7.070641e-01 7.070641e-01 1.099096e-02
      outer loop
         vertex -5.878680e-01 -5.878680e-01 4.100000e-01
         vertex -6.500000e-01 -5.401924e-01 1.340000e+00
         vertex -5.401924e-01 -6.500000e-01 1.340000e+00
      endloop
   endfacet
   facet normal 1.000000e+00 -0.000000e+00 0.000000e+00
      outer loop
         vertex -5.000000e-01 -8.000000e-01 1.340000e+00
         vertex -5.000000e-01 -1.000000e+00 1.340000e+00
         vertex -5.000000e-01 -1.000000e+00 4.100000e-01
      endloop
   endfacet
   facet normal 1.000000e+00 0.000000e+00 0.000000e+00
      outer loop
         vertex -5.000000e-01 -8.000000e-01 1.340000e+00
         vertex -5.000000e-01 -1.000000e+00 4.100000e-01
         vertex -5.000000e-01 -8.000000e-01 4.100000e-01
      endloop
   endfacet
   facet normal 0.000000e+00 -1.000000e+00 -0.000000e+00
      outer loop
         vertex -5.000000e-01 -1.000000e+00 4.100000e-01
         vertex -5.000000e-01 -1.000000e+00 1.340000e+00
         vertex -2.100000e+00 -1.000000e+00 4.100000e-01
      endloop
   endfacet
   facet normal 0.000000e+00 -1.000000e+00 -0.000000e+00
      outer loop
         vertex -5.000000e-01 -1.000000e+00 1.340000e+00
         vertex -5.200962e-01 -1.000000e+00 1.415000e+00
         vertex -2.100000e+00 -1.000000e+00 4.100000e-01
      endloop
   endfacet
   facet normal 0.000000e+00 -1.000000e+00 0.000000e+00
      outer loop
         vertex -2.100000e+00 -1.000000e+00 4.100000e-01
         vertex -5.200962e-01 -1.000000e+00 1.415000e+00
         vertex -2.100000e+00 -1.000000e+00 1.340000e+00
      endloop
   endfacet
   facet normal 0.000000e+00 -1.000000e+00 -0.000000e+00
      outer loop
         vertex -5.200962e-01 -1.000000e+00 1.415000e+00
         vertex -5.750000e-01 -1.000000e+00 1.469904e+00
         vertex -2.100000e+00 -1.000000e+00 1.340000e+00
      endloop
   endfacet
   facet normal 0.000000e+00 -1.000000e+00 0.000000e+00
      outer loop
         vertex -2.100000e+00 -1.000000e+00 1.340000e+00
         vertex -5.750000e-01 -1.000000e+00 1.469904e+00
         vertex -2.079904e+00 -1.000000e+00 1.415000e+00
      endloop
   endfacet
   facet normal 0.000000e+00 -1.000000e+00 -0.000000e+00
      outer loop
         vertex -5.750000e-01 -1.000000e+00 1.469904e+00
         vertex -6.500000e-01 -1.000000e+00 1.490000e+00
         vertex -2.079904e+00 -1.000000e+00 1.415000e+00
      endloop
   endfacet
   facet normal 0.000000e+00 -1.000000e+00 0.000000e+00
      outer loop
         vertex -2.079904e+00 -1.000000e+00 1.415000e+00
         vertex -6.500000e-01 -1.000000e+00 1.490000e+00
         vertex -2.025000e+00 -1.000000e+00 1.469904e+00
      endloop
   endfacet
   facet normal 0.000000e+00 -1.000000e+00 -0.000000e+00
      outer loop
         vertex -6.500000e-01 -1.000000e+00 1.490000e+00
         vertex -1.950000e+00 -1.000000e+00 1.490000e+00
         vertex -2.025000e+00 -1.000000e+00 1.469904e+00
      endloop
   endfacet
   facet normal -1.000000e+00 -0.000000e+00 -0.000000e+00
      outer loop
         vertex -2.100000e+00 -1.000000e+00 1.340000e+00
         vertex -2.100000e+00 -8.000000e-01 1.340000e+00
         vertex -2.100000e+00 -8.000000e-01 4.100000e-01
      endloop
   endfacet
   facet normal -1.000000e+00 0.000000e+00 0.000000e+00
      outer loop
         vertex -2.100000e+00 -1.000000e+00 1.340000e+00
         vertex -2.100000e+00 -8.000000e-01 4.100000e-01
         vertex -2.100000e+00 -1.000000e+00 4.100000e-01
      endloop
   endfacet
   facet normal -9.659259e-01 2.588189e-01 0.000000e+00
      outer loop
         vertex -2.059808e+00 -6.500000e-01 1.340000e+00
         vertex -2.059808e+00 -6.500000e-01 4.100000e-01
         vertex -2.100000e+00 -8.000000e-01 4.100000e-01
      endloop
   endfacet
   facet normal -9.659259e-01 2.588189e-01 0.000000e+00
      outer loop
         vertex -2.100000e+00 -8.000000e-01 1.340000e+00
         vertex -2.059808e+00 -6.500000e-01 1.340000e+00
         vertex -2.100000e+00 -8.000000e-01 4.100000e-01
      endloop
   endfacet
   facet normal -7.071072e-01 7.071064e-01 0.000000e+00
      outer loop
         vertex -1.950000e+00 -5.401924e-01 1.340000e+00
         vertex -1.950000e+00 -5.401924e-01 4.100000e-01
         vertex -2.059808e+00 -6.500000e-01 4.100000e-01
      endloop
   endfacet
   facet normal -7.071072e-01 7.071064e-01 0.000000e+00
      outer loop
         vertex -2.059808e+00 -6.500000e-01 1.340000e+00
         vertex -1.950000e+00 -5.401924e-01 1.340000e+00
         vertex -2.059808e+00 -6.500000e-01 4.100000e-01
      endloop
   endfacet
   facet normal -2.588188e-01 9.659259e-01 0.000000e+00
      outer loop
         vertex -1.800000e+00 -5.000000e-01 1.340000e+00
         vertex -1.800000e+00 -5.000000e-01 4.100000e-01
         vertex -1.950000e+00 -5.401924e-01 4.100000e-01
      endloop
   endfacet
   facet normal -2.588188e-01 9.659259e-01 0.000000e+00
      outer loop
         vertex -1.950000e+00 -5.401924e-01 1.340000e+00
         vertex -1.800000e+00 -5.000000e-01 1.340000e+00
         vertex -1.950000e+00 -5.401924e-01 4.100000e-01
      endloop
   endfacet
   facet normal 0.000000e+00 1.000000e+00 0.000000e+00
      outer loop
         vertex -1.800000e+00 -5.000000e-01 1.340000e+00
         vertex -8.000000e-01 -5.000000e-01 1.340000e+00
         vertex -8.000000e-01 -5.000000e-01 4.100000e-01
      endloop
   endfacet
   facet normal 0.000000e+00 1.000000e+00 0.000000e+00
      outer loop
         vertex -1.800000e+00 -5.000000e-01 1.340000e+00
         vertex -8.000000e-01 -5.000000e-01 4.100000e-01
         vertex -1.800000e+00 -5.000000e-01 4.100000e-01
      endloop
   endfacet
   facet normal 0.000000e+00 0.000000e+00 1.000000e+00
      outer loop
         vertex -1.856451e-01 -2.549660e+00 3.600000e-01
         vertex -2.386781e-01 -2.527693e+00 3.600000e-01
         vertex -1.636781e-01 -2.602693e+00 3.600000e-01
      endloop
   endfacet
   facet normal -0.000000e+00 0.000000e+00 1.000000e+00
      outer loop
         vertex -2.386781e-01 -2.527693e+00 3.600000e-01
         vertex -2.917111e-01 -2.549660e+00 3.600000e-01
         vertex -1.636781e-01 -2.602693e+00 3.600000e-01
      endloop
   endfacet
   facet normal 0.000000e+00 0.000000e+00 1.000000e+00
      outer loop
         vertex -1.636781e-01 -2.602693e+00 3.600000e-01
         vertex -2.917111e-01 -2.549660e+00 3.600000e-01
         vertex -1.856451e-01 -2.655726e+00 3.600000e-01
      endloop
   endfacet
   facet normal -0.000000e+00 0.000000e+00 1.000000e+00
      outer loop
         vertex -2.917111e-01 -2.549660e+00 3.600000e-01
         vertex -3.136781e-01 -2.602693e+00 3.600000e-01
         vertex -1.856451e-01 -2.655726e+00 3.600000e-01
      endloop
   endfacet
   facet normal 0.000000e+00 0.000000e+00 1.000000e+00
      outer loop
         vertex -1.856451e-01 -2.655726e+00 3.600000e-01
         vertex -3.136781e-01 -2.602693e+00 3.600000e-01
         vertex -2.386781e-01 -2.677693e+00 3.600000e-01
      endloop
   endfacet
   facet normal -0.000000e+00 -0.000000e+00 1.000000e+00
      outer loop
         vertex -3.136781e-01 -2.602693e+00 3.600000e-01
         vertex -2.917111e-01 -2.655726e+00 3.600000e-01
         vertex -2.386781e-01 -2.677693e+00 3.600000e-01
      endloop
   endfacet
   facet normal 0.000000e+00 0.000000e+00 -1.000000e+00
      outer loop
         vertex -3.673940e-16 -3.000000e+00 0.000000e+00
         vertex -2.600000e+00 -3.000000e+00 0.000000e+00
         vertex -2.600000e+00 3.184082e-16 0.000000e+00
      endloop
   endfacet
   facet normal 0.000000e+00 0.000000e+00 -1.000000e+00
      outer loop
         vertex 0.000000e+00 0.000000e+00 0.000000e+00
         vertex -3.673940e-16 -3.000000e+00 0.000000e+00
         vertex -2.600000e+00 3.184082e-16 0.000000e+00
      endloop
   endfacet
   facet normal 5.085899e-01 -5.085899e-01 6.947465e-01
      outer loop
         vertex -5.575962e-01 -2.339952e+00 1.415000e+00
         vertex -6.051443e-01 -2.312500e+00 1.469904e+00
         vertex -6.875000e-01 -2.394856e+00 1.469904e+00
      endloop
   endfacet
   facet normal 5.085899e-01 -5.085902e-01 6.947462e-01
      outer loop
         vertex -6.600481e-01 -2.442404e+00 1.415000e+00
         vertex -5.575962e-01 -2.339952e+00 1.415000e+00
         vertex -6.875000e-01 -2.394856e+00 1.469904e+00
      endloop
   endfacet
   facet normal 2.581988e-01 -6.918431e-02 9.636114e-01
      outer loop
         vertex -6.700962e-01 -2.275000e+00 1.490000e+00
         vertex -5.750000e-01 -2.200000e+00 1.469904e+00
         vertex -6.500000e-01 -2.200000e+00 1.490000e+00
      endloop
   endfacet
   facet normal 6.947470e-01 -1.861569e-01 6.947462e-01
      outer loop
         vertex -6.051443e-01 -2.312500e+00 1.469904e+00
         vertex -5.200962e-01 -2.200000e+00 1.415000e+00
         vertex -5.750000e-01 -2.200000e+00 1.469904e+00
      endloop
   endfacet
   facet normal 9.351131e-01 -2.505629e-01 2.505629e-01
      outer loop
         vertex -5.575962e-01 -2.339952e+00 1.415000e+00
         vertex -5.000000e-01 -2.200000e+00 1.340000e+00
         vertex -5.200962e-01 -2.200000e+00 1.415000e+00
      endloop
   endfacet
   facet normal 9.238697e-01 -3.826795e-01 -4.604679e-03
      outer loop
         vertex -5.575962e-01 -2.339952e+00 1.415000e+00
         vertex -5.878680e-01 -2.412132e+00 1.340000e+00
         vertex -5.000000e-01 -2.200000e+00 1.340000e+00
      endloop
   endfacet
   facet normal 3.826794e-01 -9.238697e-01 -4.604478e-03
      outer loop
         vertex -6.600481e-01 -2.442404e+00 1.415000e+00
         vertex -8.000000e-01 -2.500000e+00 1.340000e+00
         vertex -5.878680e-01 -2.412132e+00 1.340000e+00
      endloop
   endfacet
   facet normal 2.505620e-01 -9.351129e-01 2.505644e-01
      outer loop
         vertex -6.600481e-01 -2.442404e+00 1.415000e+00
         vertex -8.000000e-01 -2.479904e+00 1.415000e+00
         vertex -8.000000e-01 -2.500000e+00 1.340000e+00
      endloop
   endfacet
   facet normal 1.861565e-01 -6.947474e-01 6.947459e-01
      outer loop
         vertex -6.875000e-01 -2.394856e+00 1.469904e+00
         vertex -8.000000e-01 -2.425000e+00 1.469904e+00
         vertex -8.000000e-01 -2.479904e+00 1.415000e+00
      endloop
   endfacet
   facet normal 6.918370e-02 -2.581987e-01 9.636115e-01
      outer loop
         vertex -7.250000e-01 -2.329904e+00 1.490000e+00
         vertex -8.000000e-01 -2.350000e+00 1.490000e+00
         vertex -8.000000e-01 -2.425000e+00 1.469904e+00
      endloop
   endfacet
   facet normal 1.890145e-01 -1.890147e-01 9.636114e-01
      outer loop
         vertex -6.875000e-01 -2.394856e+00 1.469904e+00
         vertex -6.700962e-01 -2.275000e+00 1.490000e+00
         vertex -7.250000e-01 -2.329904e+00 1.490000e+00
      endloop
   endfacet
   facet normal 1.890147e-01 -1.890147e-01 9.636114e-01
      outer loop
         vertex -6.700962e-01 -2.275000e+00 1.490000e+00
         vertex -6.875000e-01 -2.394856e+00 1.469904e+00
         vertex -6.051443e-01 -2.312500e+00 1.469904e+00
      endloop
   endfacet
   facet normal 1.861565e-01 -6.947473e-01 6.947460e-01
      outer loop
         vertex -8.000000e-01 -2.479904e+00 1.415000e+00
         vertex -6.600481e-01 -2.442404e+00 1.415000e+00
         vertex -6.875000e-01 -2.394856e+00 1.469904e+00
      endloop
   endfacet
   facet normal 6.947470e-01 -1.861570e-01 6.947461e-01
      outer loop
         vertex -5.200962e-01 -2.200000e+00 1.415000e+00
         vertex -6.051443e-01 -2.312500e+00 1.469904e+00
         vertex -5.575962e-01 -2.339952e+00 1.415000e+00
      endloop
   endfacet
   facet normal 6.576338e-01 -6.576342e-01 3.674713e-01
      outer loop
         vertex -5.878680e-01 -2.412132e+00 1.340000e+00
         vertex -5.575962e-01 -2.339952e+00 1.415000e+00
         vertex -6.600481e-01 -2.442404e+00 1.415000e+00
      endloop
   endfacet
   facet normal 2.581987e-01 -6.918415e-02 9.636114e-01
      outer loop
         vertex -6.051443e-01 -2.312500e+00 1.469904e+00
         vertex -5.750000e-01 -2.200000e+00 1.469904e+00
         vertex -6.700962e-01 -2.275000e+00 1.490000e+00
      endloop
   endfacet
   facet normal 6.918402e-02 -2.581989e-01 9.636114e-01
      outer loop
         vertex -7.250000e-01 -2.329904e+00 1.490000e+00
         vertex -8.000000e-01 -2.425000e+00 1.469904e+00
         vertex -6.875000e-01 -2.394856e+00 1.469904e+00
      endloop
   endfacet
   facet normal 0.000000e+00 -2.588188e-01 9.659259e-01
      outer loop
         vertex -1.800000e+00 -2.350000e+00 1.490000e+00
         vertex -1.800000e+00 -2.425000e+00 1.469904e+00
         vertex -8.000000e-01 -2.425000e+00 1.469904e+00
      endloop
   endfacet
   facet normal 0.000000e+00 -2.588188e-01 9.659259e-01
      outer loop
         vertex -1.800000e+00 -2.350000e+00 1.490000e+00
         vertex -8.000000e-01 -2.425000e+00 1.469904e+00
         vertex -8.000000e-01 -2.350000e+00 1.490000e+00
      endloop
   endfacet
   facet normal 0.000000e+00 -7.071075e-01 7.071060e-01
      outer loop
         vertex -1.800000e+00 -2.425000e+00 1.469904e+00
         vertex -1.800000e+00 -2.479904e+00 1.415000e+00
         vertex -8.000000e-01 -2.479904e+00 1.415000e+00
      endloop
   endfacet
   facet normal 0.000000e+00 -7.071075e-01 7.071060e-01
      outer loop
         vertex -1.800000e+00 -2.425000e+00 1.469904e+00
         vertex -8.000000e-01 -2.479904e+00 1.415000e+00
         vertex -8.000000e-01 -2.425000e+00 1.469904e+00
      endloop
   endfacet
   facet normal 0.000000e+00 -9.659254e-01 2.588206e-01
      outer loop
         vertex -1.800000e+00 -2.479904e+00 1.415000e+00
         vertex -1.800000e+00 -2.500000e+00 1.340000e+00
         vertex -8.000000e-01 -2.500000e+00 1.340000e+00
      endloop
   endfacet
   facet normal 0.000000e+00 -9.659254e-01 2.588206e-01
      outer loop
         vertex -1.800000e+00 -2.479904e+00 1.415000e+00
         vertex -8.000000e-01 -2.500000e+00 1.340000e+00
         vertex -8.000000e-01 -2.479904e+00 1.415000e+00
      endloop
   endfacet
   facet normal -2.573445e-01 -1.065956e-01 9.604224e-01
      outer loop
         vertex -1.959099e+00 -2.359099e+00 1.469904e+00
         vertex -1.906066e+00 -2.306066e+00 1.490000e+00
         vertex -1.950000e+00 -2.200000e+00 1.490000e+00
      endloop
   endfacet
   facet normal -2.573442e-01 -1.065957e-01 9.604225e-01
      outer loop
         vertex -2.025000e+00 -2.200000e+00 1.469904e+00
         vertex -1.959099e+00 -2.359099e+00 1.469904e+00
         vertex -1.950000e+00 -2.200000e+00 1.490000e+00
      endloop
   endfacet
   facet normal -1.065951e-01 -2.573442e-01 9.604225e-01
      outer loop
         vertex -1.800000e+00 -2.425000e+00 1.469904e+00
         vertex -1.800000e+00 -2.350000e+00 1.490000e+00
         vertex -1.906066e+00 -2.306066e+00 1.490000e+00
      endloop
   endfacet
   facet normal -1.065957e-01 -2.573447e-01 9.604223e-01
      outer loop
         vertex -1.959099e+00 -2.359099e+00 1.469904e+00
         vertex -1.800000e+00 -2.425000e+00 1.469904e+00
         vertex -1.906066e+00 -2.306066e+00 1.490000e+00
      endloop
   endfacet
   facet normal -6.785988e-01 -2.810854e-01 6.785976e-01
      outer loop
         vertex -1.997922e+00 -2.397922e+00 1.415000e+00
         vertex -1.959099e+00 -2.359099e+00 1.469904e+00
         vertex -2.025000e+00 -2.200000e+00 1.469904e+00
      endloop
   endfacet
   facet normal -6.785989e-01 -2.810854e-01 6.785975e-01
      outer loop
         vertex -2.079904e+00 -2.200000e+00 1.415000e+00
         vertex -1.997922e+00 -2.397922e+00 1.415000e+00
         vertex -2.025000e+00 -2.200000e+00 1.469904e+00
      endloop
   endfacet
   facet normal -2.810851e-01 -6.785990e-01 6.785975e-01
      outer loop
         vertex -1.800000e+00 -2.479904e+00 1.415000e+00
         vertex -1.800000e+00 -2.425000e+00 1.469904e+00
         vertex -1.959099e+00 -2.359099e+00 1.469904e+00
      endloop
   endfacet
   facet normal -2.810847e-01 -6.785987e-01 6.785979e-01
      outer loop
         vertex -1.997922e+00 -2.397922e+00 1.415000e+00
         vertex -1.800000e+00 -2.479904e+00 1.415000e+00
         vertex -1.959099e+00 -2.359099e+00 1.469904e+00
      endloop
   endfacet
   facet normal -8.968086e-01 -3.714709e-01 2.402993e-01
      outer loop
         vertex -2.012132e+00 -2.412132e+00 1.340000e+00
         vertex -1.997922e+00 -2.397922e+00 1.415000e+00
         vertex -2.079904e+00 -2.200000e+00 1.415000e+00
      endloop
   endfacet
   facet normal -8.968090e-01 -3.714706e-01 2.402980e-01
      outer loop
         vertex -2.100000e+00 -2.200000e+00 1.340000e+00
         vertex -2.012132e+00 -2.412132e+00 1.340000e+00
         vertex -2.079904e+00 -2.200000e+00 1.415000e+00
      endloop
   endfacet
   facet normal -3.714701e-01 -8.968085e-01 2.403007e-01
      outer loop
         vertex -1.800000e+00 -2.500000e+00 1.340000e+00
         vertex -1.800000e+00 -2.479904e+00 1.415000e+00
         vertex -1.997922e+00 -2.397922e+00 1.415000e+00
      endloop
   endfacet
   facet normal -3.714704e-01 -8.968086e-01 2.403000e-01
      outer loop
         vertex -2.012132e+00 -2.412132e+00 1.340000e+00
         vertex -1.800000e+00 -2.500000e+00 1.340000e+00
         vertex -1.997922e+00 -2.397922e+00 1.415000e+00
      endloop
   endfacet
   facet normal -2.588188e-01 0.000000e+00 9.659259e-01
      outer loop
         vertex -1.950000e+00 -2.000000e+00 1.490000e+00
         vertex -2.025000e+00 -2.000000e+00 1.469904e+00
         vertex -2.025000e+00 -2.200000e+00 1.469904e+00
      endloop
   endfacet
   facet normal -2.588188e-01 0.000000e+00 9.659259e-01
      outer loop
         vertex -1.950000e+00 -2.000000e+00 1.490000e+00
         vertex -2.025000e+00 -2.200000e+00 1.469904e+00
         vertex -1.950000e+00 -2.200000e+00 1.490000e+00
      endloop
   endfacet
   facet normal -7.071075e-01 0.000000e+00 7.071060e-01
      outer loop
         vertex -2.025000e+00 -2.000000e+00 1.469904e+00
         vertex -2.079904e+00 -2.000000e+00 1.415000e+00
         vertex -2.079904e+00 -2.200000e+00 1.415000e+00
      endloop
   endfacet
   facet normal -7.071075e-01 0.000000e+00 7.071060e-01
      outer loop
         vertex -2.025000e+00 -2.000000e+00 1.469904e+00
         vertex -2.079904e+00 -2.200000e+00 1.415000e+00
         vertex -2.025000e+00 -2.200000e+00 1.469904e+00
      endloop
   endfacet
   facet normal -9.659262e-01 0.000000e+00 2.588178e-01
      outer loop
         vertex -2.079904e+00 -2.000000e+00 1.415000e+00
         vertex -2.100000e+00 -2.000000e+00 1.340000e+00
         vertex -2.100000e+00 -2.200000e+00 1.340000e+00
      endloop
   endfacet
   facet normal -9.659262e-01 0.000000e+00 2.588178e-01
      outer loop
         vertex -2.079904e+00 -2.000000e+00 1.415000e+00
         vertex -2.100000e+00 -2.200000e+00 1.340000e+00
         vertex -2.079904e+00 -2.200000e+00 1.415000e+00
      endloop
   endfacet
   facet normal -0.000000e+00 0.000000e+00 1.000000e+00
      outer loop
         vertex -6.500000e-01 -2.000000e+00 1.490000e+00
         vertex -1.950000e+00 -2.000000e+00 1.490000e+00
         vertex -6.500000e-01 -2.200000e+00 1.490000e+00
      endloop
   endfacet
   facet normal 0.000000e+00 0.000000e+00 1.000000e+00
      outer loop
         vertex -1.950000e+00 -2.000000e+00 1.490000e+00
         vertex -1.950000e+00 -2.200000e+00 1.490000e+00
         vertex -6.500000e-01 -2.200000e+00 1.490000e+00
      endloop
   endfacet
   facet normal -0.000000e+00 0.000000e+00 1.000000e+00
      outer loop
         vertex -6.500000e-01 -2.200000e+00 1.490000e+00
         vertex -1.950000e+00 -2.200000e+00 1.490000e+00
         vertex -6.700962e-01 -2.275000e+00 1.490000e+00
      endloop
   endfacet
   facet normal 0.000000e+00 -0.000000e+00 1.000000e+00
      outer loop
         vertex -1.950000e+00 -2.200000e+00 1.490000e+00
         vertex -1.906066e+00 -2.306066e+00 1.490000e+00
         vertex -6.700962e-01 -2.275000e+00 1.490000e+00
      endloop
   endfacet
   facet normal -0.000000e+00 0.000000e+00 1.000000e+00
      outer loop
         vertex -6.700962e-01 -2.275000e+00 1.490000e+00
         vertex -1.906066e+00 -2.306066e+00 1.490000e+00
         vertex -7.250000e-01 -2.329904e+00 1.490000e+00
      endloop
   endfacet
   facet normal 0.000000e+00 -0.000000e+00 1.000000e+00
      outer loop
         vertex -1.906066e+00 -2.306066e+00 1.490000e+00
         vertex -1.800000e+00 -2.350000e+00 1.490000e+00
         vertex -7.250000e-01 -2.329904e+00 1.490000e+00
      endloop
   endfacet
   facet normal 0.000000e+00 0.000000e+00 1.000000e+00
      outer loop
         vertex -7.250000e-01 -2.329904e+00 1.490000e+00
         vertex -1.800000e+00 -2.350000e+00 1.490000e+00
         vertex -8.000000e-01 -2.350000e+00 1.490000e+00
      endloop
   endfacet
   facet normal 9.659258e-01 -0.000000e+00 2.588192e-01
      outer loop
         vertex -5.200962e-01 -2.200000e+00 1.415000e+00
         vertex -5.000000e-01 -2.200000e+00 1.340000e+00
         vertex -5.000000e-01 -2.000000e+00 1.340000e+00
      endloop
   endfacet
   facet normal 9.226956e-01 5.060899e-02 3.821932e-01
      outer loop
         vertex -5.000000e-01 -2.000000e+00 1.340000e+00
         vertex -5.439340e-01 -2.000000e+00 1.446066e+00
         vertex -5.200962e-01 -2.200000e+00 1.415000e+00
      endloop
   endfacet
   facet normal 3.821932e-01 5.060911e-02 9.226956e-01
      outer loop
         vertex -5.439340e-01 -2.000000e+00 1.446066e+00
         vertex -6.500000e-01 -2.000000e+00 1.490000e+00
         vertex -5.750000e-01 -2.200000e+00 1.469904e+00
      endloop
   endfacet
   facet normal 2.588190e-01 -0.000000e+00 9.659258e-01
      outer loop
         vertex -6.500000e-01 -2.000000e+00 1.490000e+00
         vertex -6.500000e-01 -2.200000e+00 1.490000e+00
         vertex -5.750000e-01 -2.200000e+00 1.469904e+00
      endloop
   endfacet
   facet normal 7.068764e-01 -2.554729e-02 7.068756e-01
      outer loop
         vertex -5.750000e-01 -2.200000e+00 1.469904e+00
         vertex -5.200962e-01 -2.200000e+00 1.415000e+00
         vertex -5.439340e-01 -2.000000e+00 1.446066e+00
      endloop
   endfacet
   facet normal 5.085901e-01 5.085901e-01 6.947462e-01
      outer loop
         vertex -6.600481e-01 -5.575962e-01 1.415000e+00
         vertex -6.875000e-01 -6.051443e-01 1.469904e+00
         vertex -6.051443e-01 -6.875000e-01 1.469904e+00
      endloop
   endfacet
   facet normal 5.085901e-01 5.085901e-01 6.947462e-01
      outer loop
         vertex -5.575962e-01 -6.600481e-01 1.415000e+00
         vertex -6.600481e-01 -5.575962e-01 1.415000e+00
         vertex -6.051443e-01 -6.875000e-01 1.469904e+00
      endloop
   endfacet
   facet normal 6.918414e-02 2.581988e-01 9.636114e-01
      outer loop
         vertex -6.875000e-01 -6.051443e-01 1.469904e+00
         vertex -8.000000e-01 -5.750000e-01 1.469904e+00
         vertex -8.000000e-01 -6.500000e-01 1.490000e+00
      endloop
   endfacet
   facet normal 1.861568e-01 6.947470e-01 6.947462e-01
      outer loop
         vertex -6.875000e-01 -6.051443e-01 1.469904e+00
         vertex -8.000000e-01 -5.200962e-01 1.415000e+00
         vertex -8.000000e-01 -5.750000e-01 1.469904e+00
      endloop
   endfacet
   facet normal 2.505627e-01 9.351131e-01 2.505630e-01
      outer loop
         vertex -6.500000e-01 -5.401924e-01 1.340000e+00
         vertex -8.000000e-01 -5.000000e-01 1.340000e+00
         vertex -8.000000e-01 -5.200962e-01 1.415000e+00
      endloop
   endfacet
   facet normal 6.845502e-01 6.845502e-01 2.505633e-01
      outer loop
         vertex -5.575962e-01 -6.600481e-01 1.415000e+00
         vertex -5.401924e-01 -6.500000e-01 1.340000e+00
         vertex -6.500000e-01 -5.401924e-01 1.340000e+00
      endloop
   endfacet
   facet normal 9.351131e-01 2.505627e-01 2.505630e-01
      outer loop
         vertex -5.200962e-01 -8.000000e-01 1.415000e+00
         vertex -5.000000e-01 -8.000000e-01 1.340000e+00
         vertex -5.401924e-01 -6.500000e-01 1.340000e+00
      endloop
   endfacet
   facet normal 6.947470e-01 1.861568e-01 6.947462e-01
      outer loop
         vertex -6.051443e-01 -6.875000e-01 1.469904e+00
         vertex -5.750000e-01 -8.000000e-01 1.469904e+00
         vertex -5.200962e-01 -8.000000e-01 1.415000e+00
      endloop
   endfacet
   facet normal 2.581988e-01 6.918414e-02 9.636114e-01
      outer loop
         vertex -6.051443e-01 -6.875000e-01 1.469904e+00
         vertex -6.500000e-01 -8.000000e-01 1.490000e+00
         vertex -5.750000e-01 -8.000000e-01 1.469904e+00
      endloop
   endfacet
   facet normal 2.137757e-01 8.854877e-02 9.728613e-01
      outer loop
         vertex -6.051443e-01 -6.875000e-01 1.469904e+00
         vertex -6.939340e-01 -6.939340e-01 1.490000e+00
         vertex -6.500000e-01 -8.000000e-01 1.490000e+00
      endloop
   endfacet
   facet normal 8.854877e-02 2.137757e-01 9.728613e-01
      outer loop
         vertex -6.875000e-01 -6.051443e-01 1.469904e+00
         vertex -8.000000e-01 -6.500000e-01 1.490000e+00
         vertex -6.939340e-01 -6.939340e-01 1.490000e+00
      endloop
   endfacet
   facet normal 2.022271e-01 2.022271e-01 9.582319e-01
      outer loop
         vertex -6.939340e-01 -6.939340e-01 1.490000e+00
         vertex -6.051443e-01 -6.875000e-01 1.469904e+00
         vertex -6.875000e-01 -6.051443e-01 1.469904e+00
      endloop
   endfacet
   facet normal 6.947471e-01 1.861570e-01 6.947460e-01
      outer loop
         vertex -5.200962e-01 -8.000000e-01 1.415000e+00
         vertex -5.575962e-01 -6.600481e-01 1.415000e+00
         vertex -6.051443e-01 -6.875000e-01 1.469904e+00
      endloop
   endfacet
   facet normal 1.861570e-01 6.947471e-01 6.947460e-01
      outer loop
         vertex -8.000000e-01 -5.200962e-01 1.415000e+00
         vertex -6.875000e-01 -6.051443e-01 1.469904e+00
         vertex -6.600481e-01 -5.575962e-01 1.415000e+00
      endloop
   endfacet
   facet normal 6.845502e-01 6.845502e-01 2.505633e-01
      outer loop
         vertex -6.500000e-01 -5.401924e-01 1.340000e+00
         vertex -6.600481e-01 -5.575962e-01 1.415000e+00
         vertex -5.575962e-01 -6.600481e-01 1.415000e+00
      endloop
   endfacet
   facet normal 2.505629e-01 9.351130e-01 2.505634e-01
      outer loop
         vertex -6.600481e-01 -5.575962e-01 1.415000e+00
         vertex -6.500000e-01 -5.401924e-01 1.340000e+00
         vertex -8.000000e-01 -5.200962e-01 1.415000e+00
      endloop
   endfacet
   facet normal 9.351130e-01 2.505629e-01 2.505634e-01
      outer loop
         vertex -5.200962e-01 -8.000000e-01 1.415000e+00
         vertex -5.401924e-01 -6.500000e-01 1.340000e+00
         vertex -5.575962e-01 -6.600481e-01 1.415000e+00
      endloop
   endfacet
   facet normal 2.588190e-01 -0.000000e+00 9.659258e-01
      outer loop
         vertex -6.500000e-01 -1.000000e+00 1.490000e+00
         vertex -5.750000e-01 -1.000000e+00 1.469904e+00
         vertex -5.750000e-01 -8.000000e-01 1.469904e+00
      endloop
   endfacet
   facet normal 2.588190e-01 0.000000e+00 9.659258e-01
      outer loop
         vertex -6.500000e-01 -1.000000e+00 1.490000e+00
         vertex -5.750000e-01 -8.000000e-01 1.469904e+00
         vertex -6.500000e-01 -8.000000e-01 1.490000e+00
      endloop
   endfacet
   facet normal 7.071072e-01 -0.000000e+00 7.071064e-01
      outer loop
         vertex -5.750000e-01 -1.000000e+00 1.469904e+00
         vertex -5.200962e-01 -1.000000e+00 1.415000e+00
         vertex -5.200962e-01 -8.000000e-01 1.415000e+00
      endloop
   endfacet
   facet normal 7.071072e-01 0.000000e+00 7.071064e-01
      outer loop
         vertex -5.750000e-01 -1.000000e+00 1.469904e+00
         vertex -5.200962e-01 -8.000000e-01 1.415000e+00
         vertex -5.750000e-01 -8.000000e-01 1.469904e+00
      endloop
   endfacet
   facet normal 9.659258e-01 -0.000000e+00 2.588192e-01
      outer loop
         vertex -5.200962e-01 -1.000000e+00 1.415000e+00
         vertex -5.000000e-01 -1.000000e+00 1.340000e+00
         vertex -5.000000e-01 -8.000000e-01 1.340000e+00
      endloop
   endfacet
   facet normal 9.659258e-01 0.000000e+00 2.588192e-01
      outer loop
         vertex -5.200962e-01 -1.000000e+00 1.415000e+00
         vertex -5.000000e-01 -8.000000e-01 1.340000e+00
         vertex -5.200962e-01 -8.000000e-01 1.415000e+00
      endloop
   endfacet
   facet normal 0.000000e+00 0.000000e+00 1.000000e+00
      outer loop
         vertex -1.950000e+00 -1.000000e+00 1.490000e+00
         vertex -6.500000e-01 -1.000000e+00 1.490000e+00
         vertex -1.950000e+00 -8.000000e-01 1.490000e+00
      endloop
   endfacet
   facet normal 0.000000e+00 0.000000e+00 1.000000e+00
      outer loop
         vertex -6.500000e-01 -1.000000e+00 1.490000e+00
         vertex -6.500000e-01 -8.000000e-01 1.490000e+00
         vertex -1.950000e+00 -8.000000e-01 1.490000e+00
      endloop
   endfacet
   facet normal 0.000000e+00 0.000000e+00 1.000000e+00
      outer loop
         vertex -1.950000e+00 -8.000000e-01 1.490000e+00
         vertex -6.500000e-01 -8.000000e-01 1.490000e+00
         vertex -1.906066e+00 -6.939340e-01 1.490000e+00
      endloop
   endfacet
   facet normal 0.000000e+00 0.000000e+00 1.000000e+00
      outer loop
         vertex -6.500000e-01 -8.000000e-01 1.490000e+00
         vertex -6.939340e-01 -6.939340e-01 1.490000e+00
         vertex -1.906066e+00 -6.939340e-01 1.490000e+00
      endloop
   endfacet
   facet normal 0.000000e+00 0.000000e+00 1.000000e+00
      outer loop
         vertex -1.906066e+00 -6.939340e-01 1.490000e+00
         vertex -6.939340e-01 -6.939340e-01 1.490000e+00
         vertex -1.800000e+00 -6.500000e-01 1.490000e+00
      endloop
   endfacet
   facet normal 0.000000e+00 0.000000e+00 1.000000e+00
      outer loop
         vertex -6.939340e-01 -6.939340e-01 1.490000e+00
         vertex -8.000000e-01 -6.500000e-01 1.490000e+00
         vertex -1.800000e+00 -6.500000e-01 1.490000e+00
      endloop
   endfacet
   facet normal -2.588188e-01 0.000000e+00 9.659259e-01
      outer loop
         vertex -1.950000e+00 -8.000000e-01 1.490000e+00
         vertex -2.025000e+00 -8.000000e-01 1.469904e+00
         vertex -2.025000e+00 -1.000000e+00 1.469904e+00
      endloop
   endfacet
   facet normal -2.588188e-01 0.000000e+00 9.659259e-01
      outer loop
         vertex -1.950000e+00 -8.000000e-01 1.490000e+00
         vertex -2.025000e+00 -1.000000e+00 1.469904e+00
         vertex -1.950000e+00 -1.000000e+00 1.490000e+00
      endloop
   endfacet
   facet normal -7.071075e-01 0.000000e+00 7.071060e-01
      outer loop
         vertex -2.025000e+00 -8.000000e-01 1.469904e+00
         vertex -2.079904e+00 -8.000000e-01 1.415000e+00
         vertex -2.079904e+00 -1.000000e+00 1.415000e+00
      endloop
   endfacet
   facet normal -7.071075e-01 0.000000e+00 7.071060e-01
      outer loop
         vertex -2.025000e+00 -8.000000e-01 1.469904e+00
         vertex -2.079904e+00 -1.000000e+00 1.415000e+00
         vertex -2.025000e+00 -1.000000e+00 1.469904e+00
      endloop
   endfacet
   facet normal -9.659262e-01 0.000000e+00 2.588178e-01
      outer loop
         vertex -2.079904e+00 -8.000000e-01 1.415000e+00
         vertex -2.100000e+00 -8.000000e-01 1.340000e+00
         vertex -2.100000e+00 -1.000000e+00 1.340000e+00
      endloop
   endfacet
   facet normal -9.659262e-01 0.000000e+00 2.588178e-01
      outer loop
         vertex -2.079904e+00 -8.000000e-01 1.415000e+00
         vertex -2.100000e+00 -1.000000e+00 1.340000e+00
         vertex -2.079904e+00 -1.000000e+00 1.415000e+00
      endloop
   endfacet
   facet normal -5.085905e-01 5.085905e-01 6.947456e-01
      outer loop
         vertex -2.042404e+00 -6.600481e-01 1.415000e+00
         vertex -1.994856e+00 -6.875000e-01 1.469904e+00
         vertex -1.912500e+00 -6.051443e-01 1.469904e+00
      endloop
   endfacet
   facet normal -5.085904e-01 5.085902e-01 6.947459e-01
      outer loop
         vertex -1.939952e+00 -5.575962e-01 1.415000e+00
         vertex -2.042404e+00 -6.600481e-01 1.415000e+00
         vertex -1.912500e+00 -6.051443e-01 1.469904e+00
      endloop
   endfacet
   facet normal -2.581987e-01 6.918423e-02 9.636114e-01
      outer loop
         vertex -1.994856e+00 -6.875000e-01 1.469904e+00
         vertex -2.025000e+00 -8.000000e-01 1.469904e+00
         vertex -1.950000e+00 -8.000000e-01 1.490000e+00
      endloop
   endfacet
   facet normal -6.947473e-01 1.861573e-01 6.947458e-01
      outer loop
         vertex -1.994856e+00 -6.875000e-01 1.469904e+00
         vertex -2.079904e+00 -8.000000e-01 1.415000e+00
         vertex -2.025000e+00 -8.000000e-01 1.469904e+00
      endloop
   endfacet
   facet normal -9.351135e-01 2.505628e-01 2.505616e-01
      outer loop
         vertex -2.059808e+00 -6.500000e-01 1.340000e+00
         vertex -2.100000e+00 -8.000000e-01 1.340000e+00
         vertex -2.079904e+00 -8.000000e-01 1.415000e+00
      endloop
   endfacet
   facet normal -6.845505e-01 6.845498e-01 2.505637e-01
      outer loop
         vertex -1.939952e+00 -5.575962e-01 1.415000e+00
         vertex -1.950000e+00 -5.401924e-01 1.340000e+00
         vertex -2.059808e+00 -6.500000e-01 1.340000e+00
      endloop
   endfacet
   facet normal -2.505626e-01 9.351131e-01 2.505630e-01
      outer loop
         vertex -1.800000e+00 -5.200962e-01 1.415000e+00
         vertex -1.800000e+00 -5.000000e-01 1.340000e+00
         vertex -1.950000e+00 -5.401924e-01 1.340000e+00
      endloop
   endfacet
   facet normal -1.861567e-01 6.947470e-01 6.947462e-01
      outer loop
         vertex -1.912500e+00 -6.051443e-01 1.469904e+00
         vertex -1.800000e+00 -5.750000e-01 1.469904e+00
         vertex -1.800000e+00 -5.200962e-01 1.415000e+00
      endloop
   endfacet
   facet normal -6.918411e-02 2.581989e-01 9.636114e-01
      outer loop
         vertex -1.912500e+00 -6.051443e-01 1.469904e+00
         vertex -1.800000e+00 -6.500000e-01 1.490000e+00
         vertex -1.800000e+00 -5.750000e-01 1.469904e+00
      endloop
   endfacet
   facet normal -8.854872e-02 2.137757e-01 9.728613e-01
      outer loop
         vertex -1.912500e+00 -6.051443e-01 1.469904e+00
         vertex -1.906066e+00 -6.939340e-01 1.490000e+00
         vertex -1.800000e+00 -6.500000e-01 1.490000e+00
      endloop
   endfacet
   facet normal -2.137757e-01 8.854877e-02 9.728613e-01
      outer loop
         vertex -1.994856e+00 -6.875000e-01 1.469904e+00
         vertex -1.950000e+00 -8.000000e-01 1.490000e+00
         vertex -1.906066e+00 -6.939340e-01 1.490000e+00
      endloop
   endfacet
   facet normal -2.022271e-01 2.022271e-01 9.582319e-01
      outer loop
         vertex -1.906066e+00 -6.939340e-01 1.490000e+00
         vertex -1.912500e+00 -6.051443e-01 1.469904e+00
         vertex -1.994856e+00 -6.875000e-01 1.469904e+00
      endloop
   endfacet
   facet normal -1.861570e-01 6.947472e-01 6.947459e-01
      outer loop
         vertex -1.800000e+00 -5.200962e-01 1.415000e+00
         vertex -1.939952e+00 -5.575962e-01 1.415000e+00
         vertex -1.912500e+00 -6.051443e-01 1.469904e+00
      endloop
   endfacet
   facet normal -6.947476e-01 1.861577e-01 6.947453e-01
      outer loop
         vertex -2.079904e+00 -8.000000e-01 1.415000e+00
         vertex -1.994856e+00 -6.875000e-01 1.469904e+00
         vertex -2.042404e+00 -6.600481e-01 1.415000e+00
      endloop
   endfacet
   facet normal -6.845504e-01 6.845500e-01 2.505633e-01
      outer loop
         vertex -2.059808e+00 -6.500000e-01 1.340000e+00
         vertex -2.042404e+00 -6.600481e-01 1.415000e+00
         vertex -1.939952e+00 -5.575962e-01 1.415000e+00
      endloop
   endfacet
   facet normal -9.351127e-01 2.505636e-01 2.505634e-01
      outer loop
         vertex -2.042404e+00 -6.600481e-01 1.415000e+00
         vertex -2.059808e+00 -6.500000e-01 1.340000e+00
         vertex -2.079904e+00 -8.000000e-01 1.415000e+00
      endloop
   endfacet
   facet normal -2.505628e-01 9.351129e-01 2.505636e-01
      outer loop
         vertex -1.800000e+00 -5.200962e-01 1.415000e+00
         vertex -1.950000e+00 -5.401924e-01 1.340000e+00
         vertex -1.939952e+00 -5.575962e-01 1.415000e+00
      endloop
   endfacet
   facet normal 0.000000e+00 2.588190e-01 9.659258e-01
      outer loop
         vertex -8.000000e-01 -6.500000e-01 1.490000e+00
         vertex -8.000000e-01 -5.750000e-01 1.469904e+00
         vertex -1.800000e+00 -5.750000e-01 1.469904e+00
      endloop
   endfacet
   facet normal 0.000000e+00 2.588190e-01 9.659258e-01
      outer loop
         vertex -8.000000e-01 -6.500000e-01 1.490000e+00
         vertex -1.800000e+00 -5.750000e-01 1.469904e+00
         vertex -1.800000e+00 -6.500000e-01 1.490000e+00
      endloop
   endfacet
   facet normal 0.000000e+00 7.071072e-01 7.071064e-01
      outer loop
         vertex -8.000000e-01 -5.750000e-01 1.469904e+00
         vertex -8.000000e-01 -5.200962e-01 1.415000e+00
         vertex -1.800000e+00 -5.200962e-01 1.415000e+00
      endloop
   endfacet
   facet normal 0.000000e+00 7.071072e-01 7.071064e-01
      outer loop
         vertex -8.000000e-01 -5.750000e-01 1.469904e+00
         vertex -1.800000e+00 -5.200962e-01 1.415000e+00
         vertex -1.800000e+00 -5.750000e-01 1.469904e+00
      endloop
   endfacet
   facet normal 0.000000e+00 9.659258e-01 2.588192e-01
      outer loop
         vertex -8.000000e-01 -5.200962e-01 1.415000e+00
         vertex -8.000000e-01 -5.000000e-01 1.340000e+00
         vertex -1.800000e+00 -5.000000e-01 1.340000e+00
      endloop
   endfacet
   facet normal 0.000000e+00 9.659258e-01 2.588192e-01
      outer loop
         vertex -8.000000e-01 -5.200962e-01 1.415000e+00
         vertex -1.800000e+00 -5.000000e-01 1.340000e+00
         vertex -1.800000e+00 -5.200962e-01 1.415000e+00
      endloop
   endfacet
   facet normal 0.000000e+00 1.000000e+00 0.000000e+00
      outer loop
         vertex -1.950000e+00 -1.000000e+00 1.490000e+00
         vertex -6.500000e-01 -1.000000e+00 1.490000e+00
         vertex -2.025000e+00 -1.000000e+00 1.469904e+00
      endloop
   endfacet
   facet normal 0.000000e+00 1.000000e+00 0.000000e+00
      outer loop
         vertex -6.500000e-01 -1.000000e+00 1.490000e+00
         vertex -5.439340e-01 -1.000000e+00 1.446066e+00
         vertex -2.025000e+00 -1.000000e+00 1.469904e+00
      endloop
   endfacet
   facet normal 0.000000e+00 1.000000e+00 0.000000e+00
      outer loop
         vertex -2.025000e+00 -1.000000e+00 1.469904e+00
         vertex -5.439340e-01 -1.000000e+00 1.446066e+00
         vertex -2.079904e+00 -1.000000e+00 1.415000e+00
      endloop
   endfacet
   facet normal 0.000000e+00 1.000000e+00 0.000000e+00
      outer loop
         vertex -5.439340e-01 -1.000000e+00 1.446066e+00
         vertex -5.000000e-01 -1.000000e+00 1.340000e+00
         vertex -2.079904e+00 -1.000000e+00 1.415000e+00
      endloop
   endfacet
   facet normal 0.000000e+00 1.000000e+00 0.000000e+00
      outer loop
         vertex -2.079904e+00 -1.000000e+00 1.415000e+00
         vertex -5.000000e-01 -1.000000e+00 1.340000e+00
         vertex -2.100000e+00 -1.000000e+00 1.340000e+00
      endloop
   endfacet
   facet normal 0.000000e+00 1.000000e+00 -0.000000e+00
      outer loop
         vertex -5.000000e-01 -1.000000e+00 1.340000e+00
         vertex -5.000000e-01 -1.000000e+00 4.100000e-01
         vertex -2.100000e+00 -1.000000e+00 1.340000e+00
      endloop
   endfacet
   facet normal 0.000000e+00 1.000000e+00 0.000000e+00
      outer loop
         vertex -2.100000e+00 -1.000000e+00 1.340000e+00
         vertex -5.000000e-01 -1.000000e+00 4.100000e-01
         vertex -2.100000e+00 -1.000000e+00 4.100000e-01
      endloop
   endfacet
   facet normal -1.000000e+00 -0.000000e+00 -0.000000e+00
      outer loop
         vertex -2.100000e+00 -2.000000e+00 1.340000e+00
         vertex -2.100000e+00 -1.000000e+00 1.340000e+00
         vertex -2.100000e+00 -1.000000e+00 4.100000e-01
      endloop
   endfacet
   facet normal -1.000000e+00 0.000000e+00 0.000000e+00
      outer loop
         vertex -2.100000e+00 -2.000000e+00 1.340000e+00
         vertex -2.100000e+00 -1.000000e+00 4.100000e-01
         vertex -2.100000e+00 -2.000000e+00 4.100000e-01
      endloop
   endfacet
   facet normal 0.000000e+00 -1.000000e+00 -0.000000e+00
      outer loop
         vertex -5.000000e-01 -2.000000e+00 4.100000e-01
         vertex -5.000000e-01 -2.000000e+00 1.340000e+00
         vertex -2.100000e+00 -2.000000e+00 4.100000e-01
      endloop
   endfacet
   facet normal 0.000000e+00 -1.000000e+00 -0.000000e+00
      outer loop
         vertex -5.000000e-01 -2.000000e+00 1.340000e+00
         vertex -5.439340e-01 -2.000000e+00 1.446066e+00
         vertex -2.100000e+00 -2.000000e+00 4.100000e-01
      endloop
   endfacet
   facet normal 0.000000e+00 -1.000000e+00 0.000000e+00
      outer loop
         vertex -2.100000e+00 -2.000000e+00 4.100000e-01
         vertex -5.439340e-01 -2.000000e+00 1.446066e+00
         vertex -2.100000e+00 -2.000000e+00 1.340000e+00
      endloop
   endfacet
   facet normal 0.000000e+00 -1.000000e+00 -0.000000e+00
      outer loop
         vertex -5.439340e-01 -2.000000e+00 1.446066e+00
         vertex -6.500000e-01 -2.000000e+00 1.490000e+00
         vertex -2.100000e+00 -2.000000e+00 1.340000e+00
      endloop
   endfacet
   facet normal 0.000000e+00 -1.000000e+00 0.000000e+00
      outer loop
         vertex -2.100000e+00 -2.000000e+00 1.340000e+00
         vertex -6.500000e-01 -2.000000e+00 1.490000e+00
         vertex -2.079904e+00 -2.000000e+00 1.415000e+00
      endloop
   endfacet
   facet normal 0.000000e+00 -1.000000e+00 -0.000000e+00
      outer loop
         vertex -6.500000e-01 -2.000000e+00 1.490000e+00
         vertex -1.950000e+00 -2.000000e+00 1.490000e+00
         vertex -2.079904e+00 -2.000000e+00 1.415000e+00
      endloop
   endfacet
   facet normal 0.000000e+00 -1.000000e+00 0.000000e+00
      outer loop
         vertex -2.079904e+00 -2.000000e+00 1.415000e+00
         vertex -1.950000e+00 -2.000000e+00 1.490000e+00
         vertex -2.025000e+00 -2.000000e+00 1.469904e+00
      endloop
   endfacet
   facet normal 1.000000e+00 -0.000000e+00 0.000000e+00
      outer loop
         vertex -5.000000e-01 -1.000000e+00 1.340000e+00
         vertex -5.000000e-01 -2.000000e+00 1.340000e+00
         vertex -5.000000e-01 -2.000000e+00 4.100000e-01
      endloop
   endfacet
   facet normal 1.000000e+00 0.000000e+00 0.000000e+00
      outer loop
         vertex -5.000000e-01 -1.000000e+00 1.340000e+00
         vertex -5.000000e-01 -2.000000e+00 4.100000e-01
         vertex -5.000000e-01 -1.000000e+00 4.100000e-01
      endloop
   endfacet
   facet normal 0.000000e+00 0.000000e+00 1.000000e+00
      outer loop
         vertex -6.500000e-01 -2.000000e+00 1.490000e+00
         vertex -6.500000e-01 -1.000000e+00 1.490000e+00
         vertex -1.950000e+00 -1.000000e+00 1.490000e+00
      endloop
   endfacet
   facet normal 0.000000e+00 0.000000e+00 1.000000e+00
      outer loop
         vertex -6.500000e-01 -2.000000e+00 1.490000e+00
         vertex -1.950000e+00 -1.000000e+00 1.490000e+00
         vertex -1.950000e+00 -2.000000e+00 1.490000e+00
      endloop
   endfacet
   facet normal 0.000000e+00 0.000000e+00 -1.000000e+00
      outer loop
         vertex -2.100000e+00 -2.000000e+00 4.100000e-01
         vertex -2.100000e+00 -1.000000e+00 4.100000e-01
         vertex -5.000000e-01 -1.000000e+00 4.100000e-01
      endloop
   endfacet
   facet normal 0.000000e+00 0.000000e+00 -1.000000e+00
      outer loop
         vertex -5.000000e-01 -2.000000e+00 4.100000e-01
         vertex -2.100000e+00 -2.000000e+00 4.100000e-01
         vertex -5.000000e-01 -1.000000e+00 4.100000e-01
      endloop
   endfacet
   facet normal -2.588188e-01 0.000000e+00 9.659259e-01
      outer loop
         vertex -1.950000e+00 -1.000000e+00 1.490000e+00
         vertex -2.025000e+00 -1.000000e+00 1.469904e+00
         vertex -2.025000e+00 -2.000000e+00 1.469904e+00
      endloop
   endfacet
   facet normal -2.588188e-01 0.000000e+00 9.659259e-01
      outer loop
         vertex -1.950000e+00 -1.000000e+00 1.490000e+00
         vertex -2.025000e+00 -2.000000e+00 1.469904e+00
         vertex -1.950000e+00 -2.000000e+00 1.490000e+00
      endloop
   endfacet
   facet normal -7.071075e-01 0.000000e+00 7.071060e-01
      outer loop
         vertex -2.025000e+00 -1.000000e+00 1.469904e+00
         vertex -2.079904e+00 -1.000000e+00 1.415000e+00
         vertex -2.079904e+00 -2.000000e+00 1.415000e+00
      endloop
   endfacet
   facet normal -7.071075e-01 0.000000e+00 7.071060e-01
      outer loop
         vertex -2.025000e+00 -1.000000e+00 1.469904e+00
         vertex -2.079904e+00 -2.000000e+00 1.415000e+00
         vertex -2.025000e+00 -2.000000e+00 1.469904e+00
      endloop
   endfacet
   facet normal -9.659262e-01 0.000000e+00 2.588178e-01
      outer loop
         vertex -2.079904e+00 -1.000000e+00 1.415000e+00
         vertex -2.100000e+00 -1.000000e+00 1.340000e+00
         vertex -2.100000e+00 -2.000000e+00 1.340000e+00
      endloop
   endfacet
   facet normal -9.659262e-01 0.000000e+00 2.588178e-01
      outer loop
         vertex -2.079904e+00 -1.000000e+00 1.415000e+00
         vertex -2.100000e+00 -2.000000e+00 1.340000e+00
         vertex -2.079904e+00 -2.000000e+00 1.415000e+00
      endloop
   endfacet
   facet normal 3.826836e-01 -0.000000e+00 9.238795e-01
      outer loop
         vertex -6.500000e-01 -2.000000e+00 1.490000e+00
         vertex -5.439340e-01 -2.000000e+00 1.446066e+00
         vertex -5.439340e-01 -1.000000e+00 1.446066e+00
      endloop
   endfacet
   facet normal 3.826836e-01 0.000000e+00 9.238795e-01
      outer loop
         vertex -6.500000e-01 -2.000000e+00 1.490000e+00
         vertex -5.439340e-01 -1.000000e+00 1.446066e+00
         vertex -6.500000e-01 -1.000000e+00 1.490000e+00
      endloop
   endfacet
   facet normal 9.238795e-01 -0.000000e+00 3.826836e-01
      outer loop
         vertex -5.439340e-01 -2.000000e+00 1.446066e+00
         vertex -5.000000e-01 -2.000000e+00 1.340000e+00
         vertex -5.000000e-01 -1.000000e+00 1.340000e+00
      endloop
   endfacet
   facet normal 9.238795e-01 0.000000e+00 3.826836e-01
      outer loop
         vertex -5.439340e-01 -2.000000e+00 1.446066e+00
         vertex -5.000000e-01 -1.000000e+00 1.340000e+00
         vertex -5.439340e-01 -1.000000e+00 1.446066e+00
      endloop
   endfacet
endsolid
